<svg xmlns="http://www.w3.org/2000/svg" version="1" width="673.228" height="673.228"><g fill-rule="evenodd"><path d="M17.717 630.821h637.696v24.663H17.717V630.82zm363.029-223.99l-44.104 58.894-44.103-58.894-41.778 75.439h-58.323l69.633-125.926 22.921 29.884 51.65-247.497 51.643 247.497 22.922-29.884 69.64 125.926h-58.323l-41.778-75.439zm33.653-95.457l-13.057 17.116-64.7-310.745-64.7 310.745-13.056-17.116L150.66 506.932h114.61l30.461-54.842 40.911 54.842 40.912-54.842 30.461 54.842h114.61L414.398 311.374z" fill="#d71818"/><path d="M154.43 614.572h110.84v-23.5h-73.994v-11.316h60.937v-21.759h-60.937v-11.316h73.994v-23.507H154.43v91.398zm288.986 0h40.038v-67.891h35.112v-23.507h-110.55v23.507h35.4v67.891zm83.274 0h128.822v-23.5H591.39l64.122-44.391v-23.507H526.69v23.507h64.122l-64.122 44.392v23.5zm-508.917 0h65.573l8.125-.289 7.54-.873 6.672-1.156 6.384-1.74 6.096-2.037 5.22-2.318 4.356-2.903 4.058-2.896 3.481-3.192 3.192-3.777 2.614-3.77 2.03-3.77 1.451-4.065 1.163-4.348.578-4.355.289-4.065-.29-4.348-.577-4.355-1.163-4.347-1.451-4.066-2.03-4.059-2.614-3.488-3.192-3.77-3.48-3.192-4.06-3.192-4.354-2.607-5.221-2.614-6.096-2.03-6.384-1.74-6.672-1.162-7.54-.585-8.125-.29H17.773v91.4zm89.65-45.554l-.288 3.48-.867 3.777-1.451 3.481-2.614 3.481-1.452 1.74-1.74 1.452-2.319 1.163-2.325 1.155-2.318 1.163-2.903.578-3.481.296-3.192.289H54.618V546.68h31.047l3.48.577 2.904.585 2.318.867 2.325 1.163 2.319 1.451 1.74 1.445 1.452 1.451 2.614 3.488 1.451 3.77.867 3.77.289 3.77zm229.219 24.662h-5.51l-5.228-.578-4.348-1.163-3.777-1.451-3.185-2.318-1.451-1.163-.874-1.452-.867-1.74-.585-1.445-.577-2.036v-57.16h-36.853v58.323l.874 4.643 1.451 4.059 1.74 4.066 2.32 3.48 2.902 3.193 3.192 2.903 4.059 2.896 4.066 2.036 4.643 2.03 5.51 1.74 5.518 1.452 6.088 1.155 6.384.585 6.962.578h14.797l6.962-.578 6.68-.585 6.088-1.155 5.517-1.452 5.222-1.74 4.932-2.03 4.059-2.036 4.066-2.896 3.192-2.903 2.903-3.192 2.318-3.481 1.74-4.066 1.452-4.059.578-4.643.289-4.644v-53.68h-36.846v54.843l-.289 2.318-.289 2.036-.585 1.445-.866 1.74-1.163 1.452-1.163 1.163-3.192 2.318-3.77 1.451-4.347 1.163-5.228.578h-5.51zm283.18-137.235l1.451.289h2.326l.866.289h1.163l.867.288.874.585.577.29.29.288h.295l.29.289.288.296.289.289.289.289v.289l.296.289v.288l.289.585v.578l.289.578v2.614l-.29.289v.874l-.288.289v.289l-.296.288v.29l-.289.295-.289.29-.289.288h-.289l-.296.289-.289.289-.577.289-.874.296-.867.289h-.874l-1.155.289h-.874l-1.452.288h-7.828v-13.634h6.377zm1.451-4.066h-14.508v38.593h6.68v-16.834h8.117l8.125 16.834h7.258l-8.71-17.7.874-.29 1.163-.288.866-.29.874-.295.867-.578.585-.578.866-.585.578-.577.585-.578.289-.874.585-.867.289-.873.289-.874v-.867l.288-.874v-2.318l-.288-.578v-1.162l-.29-.578-.288-.585v-.578l-.296-.289-.289-.585-.578-.577-.296-.29-.289-.288-.578-.585-.288-.289-.578-.289-.585-.289-.578-.289-.289-.296-.874-.288-.577-.29-.585-.288h-.867l-.585-.29h-.866l-.874-.288h-.578l-1.163-.296h-3.481zm28.729 20.026v2.896l-.29 1.451-.295 1.452-.29 1.452-.288 1.451-.578 1.163-.585 1.444-.578 1.452-.577 1.162-.585 1.163-.867 1.156-.874 1.162-.866 1.163-.874 1.163-1.156 1.155-1.162.874-.874 1.156-1.163.873-1.444.867-1.163.585-1.452.874-1.162.577-1.156.578-1.451.585-1.452.289-1.451.578-1.452.289-1.452.289h-1.451l-1.452.296h-2.896l-1.451-.296h-1.452l-1.451-.29-1.452-.288-1.163-.578-1.444-.289-1.452-.585-1.162-.578-1.452-.577-1.163-.874-1.155-.585-1.163-.867-1.162-.873-1.156-1.156-1.163-.874-.873-1.155-1.156-1.163-.874-1.163-.866-1.162-.874-1.445-.578-1.162-.585-1.163-.578-1.452-.577-1.451-.585-1.156-.29-1.451-.288-1.452-.289-1.452-.296-1.451v-5.799l.296-1.452.289-1.451.289-1.452.289-1.163.585-1.451.577-1.445.578-1.451.585-1.163.867-1.451.585-1.163.866-1.156 1.163-1.162.867-1.163 1.162-1.155.874-1.163 1.156-.874 1.162-.867 1.163-.873 1.155-.578 1.163-.874 1.452-.578 1.162-.578 1.452-.584 1.156-.29 1.451-.288 1.452-.29 1.451-.288 1.452-.296h6.087l1.452.296 1.452.289 1.451.289 1.452.289 1.163.577 1.451.296 1.452.578 1.155.867 1.452.585 1.163.867 1.155.873 1.163.867 1.163.874 1.162 1.162.867 1.156.874 1.163.866.873.874 1.445.867 1.163.585 1.162.866 1.452.578 1.162.296 1.445.578 1.451.289 1.452.289 1.452.296 1.451.289 1.452v2.903zm-29.884-33.95h-3.2l-1.733.29-1.74.288-1.452.29-1.74.584-1.452.289-1.451.578-1.452.584-1.451.867-1.452.874-1.451.867-1.156.873-1.452 1.156-1.162.874-1.163 1.162-1.155 1.452-1.163 1.156-1.163 1.451-.866 1.452-.874 1.162-.874 1.452-.867 1.74-.577 1.452-.585 1.451-.578 1.445-.289 1.74-.585 1.74-.289 1.452v1.74l-.289.875v4.932l.29.874v1.444l.288 1.74.296 1.748.578 1.445.578 1.451.585 1.74.577 1.452.867 1.452.585 1.451.874 1.452 1.155 1.163.874 1.444 1.156 1.163 1.162 1.162 1.163 1.156 1.451 1.163 1.156 1.162 1.452.874 1.451.867 1.452.874 1.451.866 1.452.578 1.451.585 1.74.578 1.452.289 1.74.584 1.452.29 1.734.288h6.68l1.451-.289 1.74-.289 1.445-.584 1.748-.29 1.451-.577 1.445-.585 1.74-.578 1.452-.866 1.451-.874 1.452-.867 1.163-.874 1.451-1.162 1.452-1.163 1.155-1.156 1.163-1.162 1.163-1.163.866-1.444 1.163-1.163.867-1.452.585-1.451.866-1.452.585-1.451.578-1.452.578-1.444.296-1.74.577-1.452.29-1.74v-1.741l.288-1.748v-3.192l-.289-1.74v-1.74l-.289-1.741-.577-1.452-.296-1.74-.578-1.445-.578-1.451-.585-1.452-.578-1.451-.873-1.452-.867-1.451-.874-1.452-1.155-1.155-1.163-1.452-1.163-1.163-1.155-1.162-1.163-1.163-1.451-.867-1.452-1.162-1.163-.867-1.444-.585-1.459-.867-1.733-.577-1.452-.585-1.451-.578-1.74-.585-1.741-.289-1.452-.289-1.74-.289h-3.481z" fill="#0d0c0e"/></g></svg>